<svg xmlns="http://www.w3.org/2000/svg" width="45.525" height="44.291" viewBox="0 0 45.525 44.291">
  <path id="ic_add_shopping_cart_24px" d="M39.334,12.073l7.191-4.429H10.283v4.429ZM14.287,38.647a4.429,4.429,0,1,0,4.429,4.429A4.423,4.423,0,0,0,14.287,38.647Zm22.145,0a4.429,4.429,0,1,0,4.429,4.429A4.423,4.423,0,0,0,36.433,38.647Zm-21.769-7.2.066-.266,1.993-3.61h16.5A4.408,4.408,0,0,0,37.1,25.293l9.428-17.65-7.191,4.429L33.221,23.145H17.675l-.288-.6L12.427,12.073l-2.1-4.429L8.242,3.215H1V7.644H5.429L13.4,24.452l-2.99,5.426A4.282,4.282,0,0,0,9.858,32a4.442,4.442,0,0,0,4.429,4.429H40.862V32H15.217A.563.563,0,0,1,14.664,31.45Z" transform="translate(-1 -3.215)" fill="#fff"/>
</svg>
